<?xml version="1.0" encoding="UTF-8"?>
<svg width="49px" height="49px" viewBox="0 0 49 49" version="1.1" xmlns="http://www.w3.org/2000/svg" xmlns:xlink="http://www.w3.org/1999/xlink">
    <!-- Generator: Sketch 52.5 (67469) - http://www.bohemiancoding.com/sketch -->
    <title>audiodot</title>
    <desc>Created with Sketch.</desc>
    <g id="audiodot" stroke="none" stroke-width="1" fill="none" fill-rule="evenodd">
        <rect id="Rectangle" fill="#F9C9F8" x="8" y="10" width="32" height="29"></rect>
        <path d="M24.5,49 C10.9690236,49 0,38.0309764 0,24.5 C0,10.9690236 10.9690236,0 24.5,0 C38.0309764,0 49,10.9690236 49,24.5 C49,38.0309764 38.0309764,49 24.5,49 Z M34.3479547,29.3845671 C36.2348096,25.7565467 35.9073281,21.3334361 33.4023255,18.0091854 C30.8898181,14.6749753 26.7112531,13.1423545 22.6942284,13.9716756 C22.4313615,14.0259449 22.2622598,14.2830345 22.3165291,14.5459013 C22.3707983,14.8087682 22.627888,14.9778699 22.8907548,14.9236007 C26.5431919,14.1695492 30.3417623,15.562795 32.6260518,18.5941496 C34.9035228,21.6164556 35.2012223,25.6373172 33.4856077,28.936079 C33.3617611,29.1742096 33.4544066,29.46765 33.6925372,29.5914966 C33.9306678,29.7153432 34.2241082,29.6226977 34.3479547,29.3845671 Z M32.2719112,28.1197038 C33.321258,25.3334879 32.89903,22.1866323 31.0735044,19.764078 C29.2324884,17.3209672 26.2904437,16.0475976 23.2996985,16.3151292 C23.0323556,16.3390439 22.835018,16.5751548 22.8589327,16.8424977 C22.8828473,17.1098406 23.1189582,17.3071781 23.3863011,17.2832635 C26.0459314,17.0453511 28.6604509,18.176962 30.2972307,20.3490422 C31.9202497,22.5028611 32.2954665,25.2993442 31.3622849,27.7771196 C31.2676829,28.028306 31.3946196,28.3086229 31.6458059,28.4032249 C31.8969923,28.4978269 32.1773092,28.3708902 32.2719112,28.1197038 Z M30.0305227,26.6811413 C30.3181173,24.8694306 29.870835,23.0134244 28.7446832,21.5189706 C27.6079732,20.0105054 25.9266689,19.0656905 24.0871121,18.8541434 C23.8204591,18.8234786 23.5794354,19.0147848 23.5487706,19.2814377 C23.5181058,19.5480907 23.709412,19.7891144 23.976065,19.8197792 C25.5537668,20.0012133 26.993618,20.8103428 27.9684095,22.1039348 C28.9341547,23.385522 29.3171954,24.9749562 29.0705427,26.5287521 C29.0284616,26.7938433 29.209247,27.0428556 29.4743381,27.0849367 C29.7394293,27.1270178 29.9884416,26.9462324 30.0305227,26.6811413 Z M20.6140755,32.5115034 L21.9640579,31.4942187 L22.9679312,31.6981646 C24.6135707,32.0324912 26.2845988,32.2266567 27.963053,32.2785742 L28.6810972,32.3007845 C28.9673102,32.3096375 29.2497939,32.2340149 29.4933035,32.0833518 C30.1780687,31.6596772 30.3897231,30.7611085 29.9660431,30.0763468 C28.86772,28.3011795 27.4253417,26.2285984 25.6384201,23.8572733 C23.8508583,21.4850987 22.2556363,19.5267615 20.8516055,17.9814218 C20.659407,17.7698795 20.409271,17.6194934 20.1322955,17.5489601 C19.3519737,17.3502469 18.558309,17.8217339 18.3595959,18.6020557 L18.190308,19.2667909 C17.7816122,20.8716883 17.5091334,22.5082172 17.3757726,24.1589508 L17.2849136,25.2836 L15.9343574,26.3013171 C14.4907779,27.3891323 14.1499261,29.4159275 15.1582774,30.9160917 C15.2829485,31.1015694 15.4124419,31.2834305 15.546753,31.4616672 C15.6810778,31.6399223 15.8202158,31.8145453 15.9641607,31.9855288 C17.1282748,33.3683114 19.1705011,33.599318 20.6140755,32.5115034 Z" fill="#FF36C4"></path>
    </g>
</svg>