<?xml version="1.0" encoding="UTF-8"?>
<svg width="49px" height="49px" viewBox="0 0 49 49" version="1.1" xmlns="http://www.w3.org/2000/svg" xmlns:xlink="http://www.w3.org/1999/xlink">
    <!-- Generator: Sketch 52.5 (67469) - http://www.bohemiancoding.com/sketch -->
    <title>audiodot</title>
    <desc>Created with Sketch.</desc>
    <g id="audiodot" stroke="none" stroke-width="1" fill="none" fill-rule="evenodd">
        <rect id="Rectangle" fill="#F9C9F8" x="8" y="10" width="32" height="29"></rect>
        <circle id="Combined-Shape" fill="#FF36C4" cx="24.5" cy="24.5" r="24.5"></circle>
        <path d="M20.6190552,20.7342592 L20.6190552,27.4047505 L21.3189443,28.1953825 C22.4265969,29.4466457 23.638368,30.6017204 24.9412319,31.6481905 L25.5174552,32.1110174 C25.5940167,32.1725121 25.6869913,32.2101008 25.7847788,32.2190936 C26.059763,32.2443819 26.3031802,32.0419642 26.3284664,31.7669783 C26.5220527,29.6619237 26.6190574,27.0955473 26.6190574,24.0692486 C26.6190574,21.0418693 26.5219834,18.4747413 26.3282591,16.3692657 C26.3192787,16.271663 26.2818091,16.1788524 26.2205086,16.1023724 C26.047807,15.8869057 25.7331345,15.8522377 25.5176626,16.0249435 L24.966997,16.4663026 C23.6814416,17.4967053 22.4851681,18.6337962 21.3909195,19.8654626 L20.6190552,20.7342592 Z M19.6190552,27.0690936 L19.6190552,21.0690936 L18.1325644,21.0690936 C16.8042595,21.0690936 15.707866,22.107851 15.636205,23.4342216 C15.6247715,23.6458477 15.6190552,23.8574591 15.6190552,24.0690656 C15.6190552,24.2806939 15.6247727,24.4923278 15.6362086,24.7039771 C15.7078749,26.0303446 16.8042674,27.0690955 18.1325695,27.0690936 L19.6190552,27.0690936 Z M18.1325702,28.0690936 C16.2729478,28.0690963 14.737998,26.6148448 14.6376651,24.7579305 C14.6252588,24.5283197 14.6190552,24.2986948 14.6190552,24.0690656 C14.6190552,23.83946 14.6252575,23.6098594 14.6376613,23.380273 C14.7379867,21.5233538 16.2729374,20.0690936 18.1325644,20.0690936 L19.8723581,20.0690936 L20.6433396,19.2012907 C21.7749682,17.92755 23.012107,16.7516156 24.3415827,15.6860098 L24.8922482,15.2446506 C25.5386564,14.7265394 26.482686,14.8305446 27.0007972,15.4769528 C27.1847011,15.7063957 27.2971114,15.9848311 27.3240529,16.277643 C27.5208639,18.4166656 27.6190574,21.0134004 27.6190574,24.0692486 C27.6190574,27.1240024 27.5209342,29.7199713 27.3242648,31.8585505 C27.2484068,32.6835011 26.5181529,33.2907563 25.6932026,33.2148917 C25.3998419,33.1879135 25.1209197,33.075148 24.8912366,32.8906648 L24.3150132,32.4278379 C22.9680704,31.3459634 21.7153023,30.1518098 20.5701753,28.8582135 L19.8716247,28.0690936 L18.1325702,28.0690936 Z M31.500871,29.1635628 C31.3021639,29.3553181 30.9856316,29.3496826 30.7938762,29.1509755 C30.6021209,28.9522684 30.6077565,28.6357361 30.8064636,28.4439808 C31.9711584,27.3200329 32.6405364,25.7769277 32.6405364,24.1259801 C32.6405364,22.4595679 31.9584685,20.9032679 30.7744984,19.7773581 C30.5743914,19.5870641 30.5664364,19.2705815 30.7567304,19.0704746 C30.9470244,18.8703676 31.263507,18.8624126 31.463614,19.0527066 C32.8440904,20.3654864 33.6405364,22.1827672 33.6405364,24.1259801 C33.6405364,26.0511437 32.8588936,27.8530507 31.500871,29.1635628 Z" id="Volume-Medium-Copy" stroke="#F9C9F8" stroke-width="0.8" fill="#F9C9F8" fill-rule="nonzero" transform="translate(24.129796, 24.068162) rotate(-38.000000) translate(-24.129796, -24.068162) "></path>
    </g>
</svg>