<?xml version="1.0" encoding="UTF-8"?>
<svg width="245px" height="782px" viewBox="0 0 245 782" version="1.1" xmlns="http://www.w3.org/2000/svg" xmlns:xlink="http://www.w3.org/1999/xlink">
    <!-- Generator: Sketch 51.3 (57544) - http://www.bohemiancoding.com/sketch -->
    <title>grid</title>
    <desc>Created with Sketch.</desc>
    <defs></defs>
    <g id="Page-1" stroke="none" stroke-width="1" fill="none" fill-rule="evenodd" stroke-linecap="square">
        <g id="grid" transform="translate(-1.000000, 0.000000)" stroke="#0055FF" stroke-width="0.8">
            <g transform="translate(0.512500, 520.155255)">
                <g id="vertical" transform="translate(1.233263, 0.866527)">
                    <path d="M0.649895071,0.298470234 L0.649895071,259.967574" id="Line"></path>
                    <path d="M17.9804303,0.298470234 L17.9804303,259.967574" id="Line"></path>
                    <path d="M35.3109655,0.298470234 L35.3109655,259.967574" id="Line"></path>
                    <path d="M52.6415008,0.298470234 L52.6415008,259.967574" id="Line"></path>
                    <path d="M69.972036,0.298470234 L69.972036,259.967574" id="Line"></path>
                    <path d="M87.3025712,0.298470234 L87.3025712,259.967574" id="Line"></path>
                    <path d="M104.633106,0.298470234 L104.633106,259.967574" id="Line"></path>
                    <path d="M121.963642,0.298470234 L121.963642,259.967574" id="Line"></path>
                    <path d="M139.294177,0.298470234 L139.294177,259.967574" id="Line"></path>
                    <path d="M156.624712,0.298470234 L156.624712,259.967574" id="Line"></path>
                    <path d="M173.955247,0.298470234 L173.955247,259.967574" id="Line"></path>
                    <path d="M191.285783,0.298470234 L191.285783,259.967574" id="Line"></path>
                    <path d="M208.616318,0.298470234 L208.616318,259.967574" id="Line"></path>
                    <path d="M225.946853,0.298470234 L225.946853,259.967574" id="Line"></path>
                    <path d="M243.277388,0.298470234 L243.277388,259.967574" id="Line"></path>
                </g>
                <g id="horizontal" transform="translate(122.044125, 131.016632) rotate(90.000000) translate(-122.044125, -131.016632) translate(-8.755875, 9.416632)">
                    <path d="M17.9804303,0.21663169 L17.9804303,242.410862" id="Line"></path>
                    <path d="M139.294177,0.21663169 L139.294177,242.410862" id="Line-Copy"></path>
                    <path d="M0.649895071,0.21663169 L0.649895071,242.410862" id="Line"></path>
                    <path d="M121.963642,0.21663169 L121.963642,242.410862" id="Line-Copy-2"></path>
                    <path d="M35.3109655,0.21663169 L35.3109655,242.410862" id="Line"></path>
                    <path d="M156.624712,0.21663169 L156.624712,242.410862" id="Line-Copy-3"></path>
                    <path d="M52.6415008,0.21663169 L52.6415008,242.410862" id="Line"></path>
                    <path d="M173.955247,0.21663169 L173.955247,242.410862" id="Line-Copy-4"></path>
                    <path d="M69.972036,0.21663169 L69.972036,242.410862" id="Line"></path>
                    <path d="M191.285783,0.21663169 L191.285783,242.410862" id="Line-Copy-5"></path>
                    <path d="M87.3025712,0.21663169 L87.3025712,242.410862" id="Line"></path>
                    <path d="M208.616318,0.21663169 L208.616318,242.410862" id="Line-Copy-6"></path>
                    <path d="M104.633106,0.21663169 L104.633106,242.410862" id="Line"></path>
                    <path d="M225.946853,0.21663169 L225.946853,242.410862" id="Line-Copy-7"></path>
                    <path d="M243.277388,0.21663169 L243.277388,242.410862" id="Line-Copy-8"></path>
                    <path d="M260.607924,0.21663169 L260.607924,242.410862" id="Line-Copy-9"></path>
                </g>
            </g>
            <g transform="translate(0.512500, 260.155255)">
                <g id="vertical" transform="translate(1.233263, 0.866527)">
                    <path d="M0.649895071,0.298470234 L0.649895071,259.967574" id="Line"></path>
                    <path d="M17.9804303,0.298470234 L17.9804303,259.967574" id="Line"></path>
                    <path d="M35.3109655,0.298470234 L35.3109655,259.967574" id="Line"></path>
                    <path d="M52.6415008,0.298470234 L52.6415008,259.967574" id="Line"></path>
                    <path d="M69.972036,0.298470234 L69.972036,259.967574" id="Line"></path>
                    <path d="M87.3025712,0.298470234 L87.3025712,259.967574" id="Line"></path>
                    <path d="M104.633106,0.298470234 L104.633106,259.967574" id="Line"></path>
                    <path d="M121.963642,0.298470234 L121.963642,259.967574" id="Line"></path>
                    <path d="M139.294177,0.298470234 L139.294177,259.967574" id="Line"></path>
                    <path d="M156.624712,0.298470234 L156.624712,259.967574" id="Line"></path>
                    <path d="M173.955247,0.298470234 L173.955247,259.967574" id="Line"></path>
                    <path d="M191.285783,0.298470234 L191.285783,259.967574" id="Line"></path>
                    <path d="M208.616318,0.298470234 L208.616318,259.967574" id="Line"></path>
                    <path d="M225.946853,0.298470234 L225.946853,259.967574" id="Line"></path>
                    <path d="M243.277388,0.298470234 L243.277388,259.967574" id="Line"></path>
                </g>
                <g id="horizontal" transform="translate(122.044125, 122.216632) rotate(90.000000) translate(-122.044125, -122.216632) translate(0.044125, 0.616632)">
                    <path d="M17.9804303,0.21663169 L17.9804303,242.410862" id="Line"></path>
                    <path d="M139.294177,0.21663169 L139.294177,242.410862" id="Line-Copy"></path>
                    <path d="M0.649895071,0.21663169 L0.649895071,242.410862" id="Line"></path>
                    <path d="M121.963642,0.21663169 L121.963642,242.410862" id="Line-Copy-2"></path>
                    <path d="M35.3109655,0.21663169 L35.3109655,242.410862" id="Line"></path>
                    <path d="M156.624712,0.21663169 L156.624712,242.410862" id="Line-Copy-3"></path>
                    <path d="M52.6415008,0.21663169 L52.6415008,242.410862" id="Line"></path>
                    <path d="M173.955247,0.21663169 L173.955247,242.410862" id="Line-Copy-4"></path>
                    <path d="M69.972036,0.21663169 L69.972036,242.410862" id="Line"></path>
                    <path d="M191.285783,0.21663169 L191.285783,242.410862" id="Line-Copy-5"></path>
                    <path d="M87.3025712,0.21663169 L87.3025712,242.410862" id="Line"></path>
                    <path d="M208.616318,0.21663169 L208.616318,242.410862" id="Line-Copy-6"></path>
                    <path d="M104.633106,0.21663169 L104.633106,242.410862" id="Line"></path>
                    <path d="M225.946853,0.21663169 L225.946853,242.410862" id="Line-Copy-7"></path>
                    <path d="M243.277388,0.21663169 L243.277388,242.410862" id="Line-Copy-8"></path>
                </g>
            </g>
            <g transform="translate(0.512500, 0.155255)">
                <g id="vertical" transform="translate(1.233263, 0.866527)">
                    <path d="M0.649895071,0.298470234 L0.649895071,259.967574" id="Line"></path>
                    <path d="M17.9804303,0.298470234 L17.9804303,259.967574" id="Line"></path>
                    <path d="M35.3109655,0.298470234 L35.3109655,259.967574" id="Line"></path>
                    <path d="M52.6415008,0.298470234 L52.6415008,259.967574" id="Line"></path>
                    <path d="M69.972036,0.298470234 L69.972036,259.967574" id="Line"></path>
                    <path d="M87.3025712,0.298470234 L87.3025712,259.967574" id="Line"></path>
                    <path d="M104.633106,0.298470234 L104.633106,259.967574" id="Line"></path>
                    <path d="M121.963642,0.298470234 L121.963642,259.967574" id="Line"></path>
                    <path d="M139.294177,0.298470234 L139.294177,259.967574" id="Line"></path>
                    <path d="M156.624712,0.298470234 L156.624712,259.967574" id="Line"></path>
                    <path d="M173.955247,0.298470234 L173.955247,259.967574" id="Line"></path>
                    <path d="M191.285783,0.298470234 L191.285783,259.967574" id="Line"></path>
                    <path d="M208.616318,0.298470234 L208.616318,259.967574" id="Line"></path>
                    <path d="M225.946853,0.298470234 L225.946853,259.967574" id="Line"></path>
                    <path d="M243.277388,0.298470234 L243.277388,259.967574" id="Line"></path>
                </g>
                <g id="horizontal" transform="translate(122.144125, 122.216632) rotate(90.000000) translate(-122.144125, -122.216632) translate(0.144125, 0.716632)">
                    <path d="M17.9804303,0.21663169 L17.9804303,242.410862" id="Line"></path>
                    <path d="M139.294177,0.21663169 L139.294177,242.410862" id="Line-Copy"></path>
                    <path d="M0.649895071,0.21663169 L0.649895071,242.410862" id="Line"></path>
                    <path d="M121.963642,0.21663169 L121.963642,242.410862" id="Line-Copy-2"></path>
                    <path d="M35.3109655,0.21663169 L35.3109655,242.410862" id="Line"></path>
                    <path d="M156.624712,0.21663169 L156.624712,242.410862" id="Line-Copy-3"></path>
                    <path d="M52.6415008,0.21663169 L52.6415008,242.410862" id="Line"></path>
                    <path d="M173.955247,0.21663169 L173.955247,242.410862" id="Line-Copy-4"></path>
                    <path d="M69.972036,0.21663169 L69.972036,242.410862" id="Line"></path>
                    <path d="M191.285783,0.21663169 L191.285783,242.410862" id="Line-Copy-5"></path>
                    <path d="M87.3025712,0.21663169 L87.3025712,242.410862" id="Line"></path>
                    <path d="M208.616318,0.21663169 L208.616318,242.410862" id="Line-Copy-6"></path>
                    <path d="M104.633106,0.21663169 L104.633106,242.410862" id="Line"></path>
                    <path d="M225.946853,0.21663169 L225.946853,242.410862" id="Line-Copy-7"></path>
                    <path d="M243.277388,0.21663169 L243.277388,242.410862" id="Line-Copy-8"></path>
                </g>
            </g>
        </g>
    </g>
</svg>