<?xml version="1.0" encoding="UTF-8"?>
<svg width="49px" height="49px" viewBox="0 0 49 49" version="1.1" xmlns="http://www.w3.org/2000/svg" xmlns:xlink="http://www.w3.org/1999/xlink">
    <!-- Generator: Sketch 52.5 (67469) - http://www.bohemiancoding.com/sketch -->
    <title>linkdot</title>
    <desc>Created with Sketch.</desc>
    <g id="linkdot" stroke="none" stroke-width="1" fill="none" fill-rule="evenodd">
        <rect id="Rectangle" fill="#F9C9F8" x="8" y="10" width="32" height="29"></rect>
        <path d="M24.5,49 C10.9690236,49 0,38.0309764 0,24.5 C0,10.9690236 10.9690236,0 24.5,0 C38.0309764,0 49,10.9690236 49,24.5 C49,38.0309764 38.0309764,49 24.5,49 Z M27.8143776,22.7358506 L27.3806323,27.209436 C27.3208459,27.826065 27.7583336,28.307411 28.3577885,28.2845522 C28.9572434,28.2616935 29.4916641,27.7432862 29.5514506,27.1266571 L30.2729779,19.6849294 C30.3419316,18.9737511 29.7555472,18.4681499 29.0651369,18.6434865 L21.7030848,20.5131523 C21.1044627,20.6651783 20.6739981,21.2732203 20.7416154,21.8712521 C20.8092327,22.4692839 21.3493264,22.830843 21.9479486,22.678817 L26.0629226,21.6337787 L19.9647662,28.9012785 C19.5466151,29.3996116 19.5591962,30.0985839 19.9928669,30.4624768 C20.4265375,30.8263697 21.1170755,30.7173844 21.5352267,30.2190513 L27.8143776,22.7358506 Z" id="Combined-Shape" fill="#FF36C4"></path>
    </g>
</svg>